<?xml version="1.0" encoding="UTF-8"?>
<!DOCTYPE svg PUBLIC "-//W3C//DTD SVG 1.1//EN" "http://www.w3.org/Graphics/SVG/1.1/DTD/svg11.dtd">
<!-- Creator: CorelDRAW -->
<svg xmlns="http://www.w3.org/2000/svg" xml:space="preserve" width="2048px" height="2048px" style="shape-rendering:geometricPrecision; text-rendering:geometricPrecision; image-rendering:optimizeQuality; fill-rule:evenodd; clip-rule:evenodd"
viewBox="0 0 2048 2048"
 xmlns:xlink="http://www.w3.org/1999/xlink">
 <defs>
  <style type="text/css">
   <![CDATA[
    .fil0 {fill:none}
    .fil1 {fill:#5F5F5F}
    .fil16 {fill:#2A2A2A;fill-rule:nonzero}
    .fil13 {fill:#2E2E2E;fill-rule:nonzero}
    .fil10 {fill:#2F2F2F;fill-rule:nonzero}
    .fil8 {fill:#414141;fill-rule:nonzero}
    .fil12 {fill:#616161;fill-rule:nonzero}
    .fil7 {fill:#717171;fill-rule:nonzero}
    .fil4 {fill:#8F8F90;fill-rule:nonzero}
    .fil11 {fill:#919191;fill-rule:nonzero}
    .fil14 {fill:#B0B0B0;fill-rule:nonzero}
    .fil15 {fill:#B2B2B2;fill-rule:nonzero}
    .fil6 {fill:#B3B4B4;fill-rule:nonzero}
    .fil5 {fill:#C1C1C2;fill-rule:nonzero}
    .fil3 {fill:#C7C7C7;fill-rule:nonzero}
    .fil2 {fill:#E6E6E7;fill-rule:nonzero}
    .fil9 {fill:#F0F1F1;fill-rule:nonzero}
   ]]>
  </style>
 </defs>
 <g id="Layer_x0020_1">
  <metadata id="CorelCorpID_0Corel-Layer"/>
  <rect class="fil0" x="255.999" y="255.999" width="1536" height="1536"/>
  <g id="_495630512">
   <circle id="_495649688" class="fil1" cx="499.024" cy="1611.78" r="69.4162"/>
   <circle id="_495637952" class="fil1" cx="499.024" cy="1226.16" r="69.4162"/>
   <circle id="_495622472" class="fil1" cx="499.024" cy="829.123" r="69.4162"/>
   <circle id="_495627560" class="fil1" cx="499.024" cy="440.048" r="69.4162"/>
   <polygon id="_495651392" class="fil2" points="600.471,263.81 600.471,1792 1370.72,1792 1370.72,1556.55 1606.17,1556.55 1606.17,263.81 "/>
   <polygon id="_495649496" class="fil3" points="1370.72,1792 1488.45,1674.27 1606.17,1556.55 1370.72,1556.55 "/>
   <path id="_495634424" class="fil4" d="M491.475 488.463c-29.7921,0 -53.9587,-24.1406 -53.9587,-53.9445 0,-29.804 24.1666,-53.9445 53.9587,-53.9445 29.7898,0 53.9563,24.1406 53.9563,53.9445 0,29.804 -24.1666,53.9445 -53.9563,53.9445zm0 395.657c-29.7921,0 -53.9587,-24.137 -53.9587,-53.9563 0,-29.7921 24.1666,-53.9587 53.9587,-53.9587 29.7898,0 53.9563,24.1666 53.9563,53.9587 0,29.8193 -24.1666,53.9563 -53.9563,53.9563zm0 395.645c-29.7921,0 -53.9587,-24.1547 -53.9587,-53.9445 0,-29.804 24.1666,-53.9705 53.9587,-53.9705 29.7898,0 53.9563,24.1666 53.9563,53.9705 0,29.7898 -24.1666,53.9445 -53.9563,53.9445zm0 395.641c-29.7921,0 -53.9587,-24.1358 -53.9587,-53.9552 0,-29.804 24.1666,-53.9445 53.9587,-53.9445 29.7898,0 53.9563,24.1406 53.9563,53.9445 0,29.8193 -24.1666,53.9552 -53.9563,53.9552zm33.5221 -1411.44c-78.7075,0 -142.502,63.7949 -142.502,142.507l0 1243.03c0,78.6969 63.7949,142.492 142.502,142.492l75.4737 0 0 -1528.03 -75.4737 0z"/>
   <path id="_495622544" class="fil5" d="M515.241 436.665c0,20.0221 -16.2201,36.2433 -36.2575,36.2433l-113.276 0c-20.0256,0 -36.254,-16.2213 -36.254,-36.2433 0,-20.0173 16.2284,-36.2422 36.254,-36.2422l113.276 0c20.0374,0 36.2575,16.2248 36.2575,36.2422z"/>
   <path id="_495625472" class="fil6" d="M478.983 472.908l-113.276 0c-20.0256,0 -36.254,-16.2213 -36.254,-36.2433l185.788 0c0,20.0221 -16.2201,36.2433 -36.2575,36.2433z"/>
   <path id="_495637040" class="fil5" d="M515.241 831.429c0,20.0221 -16.2201,36.2422 -36.2575,36.2422l-113.276 0c-20.0256,0 -36.254,-16.2201 -36.254,-36.2422 0,-20.0327 16.2284,-36.2575 36.254,-36.2575l113.276 0c20.0374,0 36.2575,16.2248 36.2575,36.2575z"/>
   <path id="_495626648" class="fil6" d="M478.983 867.672l-113.276 0c-20.0256,0 -36.254,-16.2201 -36.254,-36.2422l185.788 0c0,20.0221 -16.2201,36.2422 -36.2575,36.2422z"/>
   <path id="_495640712" class="fil5" d="M515.241 1230.72c0,20.0327 -16.2201,36.2575 -36.2575,36.2575l-113.276 0c-20.0256,0 -36.254,-16.2248 -36.254,-36.2575 0,-20.0221 16.2284,-36.254 36.254,-36.254l113.276 0c20.0374,0 36.2575,16.2319 36.2575,36.254z"/>
   <path id="_495651512" class="fil6" d="M478.983 1266.98l-113.276 0c-20.0256,0 -36.254,-16.2248 -36.254,-36.2575l185.788 0c0,20.0327 -16.2201,36.2575 -36.2575,36.2575z"/>
   <path id="_495637736" class="fil5" d="M515.241 1622.26c0,20.0221 -16.2201,36.2575 -36.2575,36.2575l-113.276 0c-20.0256,0 -36.254,-16.2354 -36.254,-36.2575 0,-20.0221 16.2284,-36.254 36.254,-36.254l113.276 0c20.0374,0 36.2575,16.2319 36.2575,36.254z"/>
   <path id="_495634040" class="fil6" d="M478.983 1658.52l-113.276 0c-20.0256,0 -36.254,-16.2354 -36.254,-36.2575l185.788 0c0,20.0221 -16.2201,36.2575 -36.2575,36.2575z"/>
   <polygon id="_495652016" class="fil3" points="686.109,509.165 1520.53,509.165 1520.53,472.903 686.109,472.903 "/>
   <polygon id="_495644888" class="fil3" points="686.109,637.072 1520.53,637.072 1520.53,600.818 686.109,600.818 "/>
   <polygon id="_495626456" class="fil3" points="686.109,764.956 1520.53,764.956 1520.53,728.688 686.109,728.688 "/>
   <polygon id="_495650432" class="fil3" points="686.109,892.825 1520.53,892.825 1520.53,856.579 686.109,856.579 "/>
   <polygon id="_495653312" class="fil3" points="686.109,1020.71 1520.53,1020.71 1520.53,984.463 686.109,984.463 "/>
   <polygon id="_495638816" class="fil3" points="686.109,1148.62 1520.53,1148.62 1520.53,1112.35 686.109,1112.35 "/>
   <g>
    <polygon id="_495652760" class="fil7" points="1757.74,654.088 1617.99,514.343 1132.04,1000.29 1271.79,1140.03 "/>
    <polygon id="_495634808" class="fil8" points="1677.51,734.304 1537.77,594.559 1512.49,619.844 1652.23,759.592 "/>
    <polygon id="_495646376" class="fil9" points="1132.04,1000.29 1271.79,1140.03 1154.49,1163.99 1108.09,1117.6 "/>
    <polygon id="_495639512" class="fil10" points="1108.09,1117.6 1154.49,1163.99 1096.17,1175.89 "/>
    <polygon id="_495641888" class="fil11" points="1618.13,514.476 1537.91,594.707 1607.78,664.565 1688,584.35 "/>
    <polygon id="_495647816" class="fil11" points="1512.61,619.992 1132.19,1000.43 1202.07,1070.3 1582.48,689.866 "/>
    <path id="_495641192" class="fil4" d="M1537.91 594.707l0 0 69.8705 69.8587 0 0 -69.8705 -69.8587zm-25.2898 25.2732l-0.0106299 0.011811 69.8705 69.8741 0 -0.0153543 -69.8599 -69.8705z"/>
    <polygon id="_495634352" class="fil12" points="1537.91,594.707 1512.62,619.98 1582.48,689.851 1607.78,664.565 "/>
    <polygon id="_495646808" class="fil13" points="1115.86,1125.38 1131.43,1140.93 1131.43,1140.93 "/>
    <polygon id="_495648824" class="fil14" points="1096.51,1175.83 1096.33,1175.87 1096.31,1176.03 "/>
    <polygon id="_495651320" class="fil15" points="1108.21,1117.73 1108.21,1117.73 1115.86,1125.38 "/>
    <polygon id="_495627968" class="fil16" points="1108.21,1117.73 1096.33,1175.87 1096.51,1175.83 1131.43,1140.93 1115.86,1125.38 "/>
   </g>
  </g>
  <rect class="fil0" width="2048" height="2048"/>
 </g>
</svg>
