<?xml version="1.0" encoding="UTF-8"?>
<!DOCTYPE svg PUBLIC "-//W3C//DTD SVG 1.1//EN" "http://www.w3.org/Graphics/SVG/1.1/DTD/svg11.dtd">
<!-- Creator: CorelDRAW -->
<svg xmlns="http://www.w3.org/2000/svg" xml:space="preserve" width="2048px" height="2048px" style="shape-rendering:geometricPrecision; text-rendering:geometricPrecision; image-rendering:optimizeQuality; fill-rule:evenodd; clip-rule:evenodd"
viewBox="0 0 2048 2048"
 xmlns:xlink="http://www.w3.org/1999/xlink">
 <defs>
  <style type="text/css">
   <![CDATA[
    .fil0 {fill:none}
    .fil1 {fill:#616161}
    .fil4 {fill:#4B4B4B;fill-rule:nonzero}
    .fil6 {fill:#8F8F90;fill-rule:nonzero}
    .fil3 {fill:#959595;fill-rule:nonzero}
    .fil5 {fill:#B3B3B3;fill-rule:nonzero}
    .fil2 {fill:#DADADA;fill-rule:nonzero}
   ]]>
  </style>
 </defs>
 <g id="Layer_x0020_1">
  <metadata id="CorelCorpID_0Corel-Layer"/>
  <rect class="fil0" x="255.999" y="255.999" width="1536" height="1536"/>
  <polygon class="fil1" points="1028.37,1540.86 833.078,1231.78 1222.16,1231.78 "/>
  <path class="fil2" d="M1317.39 834.925c-1.1563,0 -2.26417,0.386221 -3.42048,0.516142 -20.341,-177.395 -138.876,-313.683 -282.519,-313.683 -143.912,0 -262.644,136.825 -282.645,314.71 -23.2547,6.99095 -40.728,37.1729 -40.728,73.3501 0,39.4973 20.9232,71.5205 47.3811,74.3422 18.9225,91.3501 64.5438,168.548 125.369,217.319l-19.9914 365.117 285.929 0 19.5567 -365.942c68.7095,-47.7296 120.941,-118.094 141.302,-217.397 3.17599,0.903544 6.42993,1.45748 9.76536,1.45748 28.1977,0 51.0473,-33.5362 51.0473,-74.8961 0,-41.3646 -22.8496,-74.8926 -51.0473,-74.8926z"/>
  <path class="fil3" d="M1313.97 835.442c0,-186.134 -146.17,-342.709 -308.447,-342.709 -162.243,0 -293.783,150.879 -293.783,337.012 0,186.118 103.926,-150.907 266.17,-150.907 226.845,-130.104 336.06,342.722 336.06,156.604z"/>
  <path class="fil4" d="M1010.76 255.999l-536.573 212.68 0 50.9339 235.093 68.8878 0 154.237c0,0 93.5387,-28.989 301.48,-43.2756 202.554,13.141 301.493,43.2756 301.493,43.2756l0 -154.237 235.082 -68.8878 0 -50.9339 -536.575 -212.68z"/>
  <polygon class="fil4" points="1038.25,1523.81 1037.98,1515.43 1038.25,1515.76 1255.69,1257.03 1255.69,1257.03 1038.25,1515.76 "/>
  <polygon class="fil5" points="1031.64,258.424 1031.64,255.999 1034.95,257.212 "/>
  <path class="fil6" d="M1451.45 799.999c-19.2248,-0.915355 -38.5654,-11.576 -60.3839,-31.9807 -6.47717,-6.05079 8.77442,-46.8449 32.8536,-101.671 -6.90237,-2.55945 -11.8937,-9.47481 -11.8937,-17.7083 0,-10.3819 7.90631,-18.8103 17.6445,-18.8103l0.193701 0 0 -219.267c0,-2.34567 0.291733,-4.61811 0.83504,-6.78544 2.5689,-10.1197 10.7433,-17.7721 20.7508,-18.9591 12.1559,1.43268 21.6036,12.4099 21.6036,25.7445l0 219.267 2.99055 0c9.75473,0 17.6599,8.42835 17.6599,18.8103 0,9.20552 -6.20315,16.8248 -14.3858,18.4606 24.0189,54.7016 38.9658,94.8922 32.5229,100.918 -21.8173,20.4047 -41.1662,31.0654 -60.391,31.9807z"/>
  <polygon class="fil4" points="1566.47,1515.67 1223.28,1231.78 1028.07,1518.23 832.883,1231.78 489.677,1515.67 489.904,1792 1568,1792 "/>
  <rect class="fil0" width="2048" height="2048"/>
 </g>
</svg>
