<?xml version="1.0" encoding="UTF-8"?>
<!DOCTYPE svg PUBLIC "-//W3C//DTD SVG 1.1//EN" "http://www.w3.org/Graphics/SVG/1.1/DTD/svg11.dtd">
<!-- Creator: CorelDRAW -->
<svg xmlns="http://www.w3.org/2000/svg" xml:space="preserve" width="2048px" height="2048px" style="shape-rendering:geometricPrecision; text-rendering:geometricPrecision; image-rendering:optimizeQuality; fill-rule:evenodd; clip-rule:evenodd"
viewBox="0 0 2048 2048"
 xmlns:xlink="http://www.w3.org/1999/xlink">
 <defs>
  <style type="text/css">
   <![CDATA[
    .fil2 {fill:none}
    .fil1 {fill:#424242}
    .fil0 {fill:#424242;fill-rule:nonzero}
   ]]>
  </style>
 </defs>
 <g id="Layer_x0020_1">
  <metadata id="CorelCorpID_0Corel-Layer"/>
  <g id="_341375672">
   <path id="_341375432" class="fil0" d="M632.491 406.837c57.4489,0 109.465,23.289 147.117,60.9414 37.6524,37.6524 60.9414,89.667 60.9414,147.117 0,57.4489 -23.289,109.465 -60.9414,147.117 -37.6524,37.6524 -89.6682,60.9414 -147.117,60.9414 -57.45,0 -109.465,-23.289 -147.117,-60.9414 -37.6524,-37.6524 -60.9414,-89.6682 -60.9414,-147.117 0,-57.45 23.289,-109.465 60.9414,-147.117 37.6524,-37.6524 89.667,-60.9414 147.117,-60.9414z"/>
   <path id="_341375576" class="fil0" d="M1103.43 454.718c50.8382,0 96.8682,20.6091 130.188,53.9292 33.3201,33.3201 53.9292,79.3501 53.9292,130.188 0,50.8382 -20.6091,96.8694 -53.9292,130.189 -33.3201,33.3189 -79.3501,53.9292 -130.188,53.9292 -50.8382,0 -96.8694,-20.6103 -130.189,-53.9292 -33.3201,-33.3201 -53.9292,-79.3512 -53.9292,-130.189 0,-50.8382 20.6103,-96.8682 53.9292,-130.188 33.3201,-33.3201 79.3512,-53.9292 130.189,-53.9292z"/>
   <path id="_341375288" class="fil1" d="M437.73 1154.38l916.02 0 32.0008 0 0 32.0008 0 281.853 0 32.0008 -32.0008 0 -916.02 0 -32.0008 0 0 -32.0008 0 -281.853 0 -32.0008 32.0008 0zm1097.75 298.236l0 -426.773 0 -105.167c0,-24.541 -12.1713,-46.2839 -31.7811,-61.5355 -17.328,-13.4776 -40.8154,-21.8445 -66.2776,-21.8445l-1083.37 0c-25.4622,0 -48.9508,8.36694 -66.2788,21.8433 -19.6075,15.2516 -31.7799,36.991 -31.7799,61.5367l0 637.105c0,24.5445 12.1736,46.2851 31.7811,61.5343 17.328,13.4776 40.8189,21.8445 66.2776,21.8445l1083.37 0c25.4599,0 48.9485,-8.36812 66.2764,-21.8457 19.6087,-15.2504 31.7823,-36.991 31.7823,-61.5331l0 -105.165zm-569.279 -439.161l140.927 0 0 64.0016 -140.927 0 0 -64.0016zm246.619 0l140.928 0 0 64.0016 -140.928 0 0 -64.0016z"/>
   <path id="_341375552" class="fil0" d="M1495.23 1036.74l212.056 -57.3863c4.96536,-1.34291 9.84095,-1.98307 14.5996,-1.98307 17.6811,0 33.215,8.24174 45.313,21.4547 9.68505,10.5768 17.1095,24.5587 21.137,39.4477 2.36575,8.74253 3.66378,17.9173 3.66378,27.0047l0 347.912c0,9.08977 -1.29803,18.2646 -3.66496,27.0095 -4.02992,14.889 -11.4543,28.8685 -21.137,39.4453 -12.0992,13.2118 -27.6319,21.4536 -45.3118,21.4536 -4.75985,0 -9.63898,-0.64252 -14.5996,-1.98425l-212.056 -57.3851 -23.7508 -6.42756 0 -24.4477 0 -343.238 0 -24.4488 23.7508 -6.42638z"/>
  </g>
 </g>
 <rect class="fil2" width="2048" height="2048"/>
</svg>
